<svg width="17" height="48" viewBox="0 0 17 48" fill="none" xmlns="http://www.w3.org/2000/svg">
<path d="M15.8488 7.34017C15.8099 10.9882 15.7369 14.8003 14.2932 18.0112C13.6454 19.4526 12.7363 20.7292 12.2465 22.2581C12.0221 22.9567 11.8928 23.6851 11.8165 24.4263H4.3871C4.27922 23.5862 4.12522 22.7734 3.88937 22.0243C3.85055 21.9005 3.80963 21.7783 3.76673 21.6569C3.0412 19.6151 1.76101 17.9091 1.14001 15.8029C0.182717 12.5544 -0.0457949 8.98916 0.551139 5.61435C0.790959 4.25981 1.19086 2.8706 2.05378 1.95175C2.82419 1.13172 3.86184 0.793344 4.87741 0.571479C6.11878 0.30052 7.31055 0.314198 8.57264 0.286072C9.95799 0.255561 11.3815 0.356762 12.6732 0.970124C13.8871 1.54732 15.0487 2.46856 15.5217 3.93008C15.8688 5.00324 15.8615 6.18816 15.8488 7.34017Z" fill="white"/>
<path d="M4.34299 24.9495L5.19973 35.7861C5.19973 35.7861 6.51614 47.7136 8.00559 47.7062C9.49516 47.6988 10.2256 42.0738 10.2256 42.0738C10.2256 42.0738 11.3442 35.0836 11.4916 32.0258C11.6388 28.9681 11.661 25.5035 11.8174 24.4222C11.9738 23.3408 12.4557 21.4824 12.4557 21.4824C12.4557 21.4824 9.31319 22.3708 8.39932 22.2127C7.48545 22.0546 3.74219 21.4915 3.74219 21.4915C3.74219 21.4915 4.21512 23.5838 4.34299 24.9495Z" fill="#DCE7FF"/>
<path d="M15.6267 7.34061C15.5893 10.7906 15.5497 14.4409 14.2251 17.5915C13.5962 19.0871 12.6672 20.3763 12.1212 21.9254C11.5625 23.5109 11.5035 25.2465 11.473 26.9438C11.4035 30.8186 11.134 34.6728 10.5865 38.4945C10.3261 40.3123 10.0202 42.1268 9.63469 43.9129C9.45085 44.7645 9.2376 45.6135 8.90686 46.4014C8.76665 46.7355 8.53802 47.434 8.16803 47.4648C7.60929 47.5112 7.40726 46.4087 7.25952 45.9467C6.1775 42.5643 5.69577 38.9626 5.3872 35.3742C5.23789 33.6386 5.12709 31.8987 5.00446 30.1602C4.8789 28.3805 4.85209 26.5872 4.65737 24.8153C4.4773 23.1768 4.09592 21.6648 3.41748 20.2227C2.71717 18.7341 1.8442 17.3527 1.35629 15.7322C0.332456 12.3316 0.112414 8.41027 0.924056 4.91153C1.13301 4.01076 1.44147 3.11036 1.97855 2.41627C2.54138 1.6889 3.30624 1.2974 4.09277 1.04954C5.77936 0.518299 7.59832 0.514152 9.33241 0.552698C10.9519 0.588734 12.5976 0.945338 13.9528 2.07199C14.5924 2.60374 15.1138 3.31302 15.3689 4.20412C15.6561 5.20772 15.6375 6.29344 15.6267 7.34061C15.6232 7.68515 16.0692 7.68528 16.0727 7.34061C16.0897 5.69326 16.057 3.96519 15.1352 2.63638C14.2806 1.40464 12.9312 0.661437 11.6508 0.317151C10.1063 -0.0982026 8.48225 -0.0119447 6.91139 0.0608802C5.45907 0.12818 3.8541 0.314261 2.56617 1.19155C1.36257 2.01121 0.755487 3.50173 0.430495 5.05918C0.0442928 6.90994 -0.0717402 8.85587 0.0411593 10.7562C0.153954 12.6539 0.47173 14.5997 1.08352 16.3607C1.6385 17.958 2.5242 19.3363 3.1992 20.8569C4.01419 22.6929 4.24764 24.7023 4.36587 26.7535C4.4793 28.7207 4.5924 30.6854 4.73135 32.6505C5.00497 36.5193 5.33708 40.4212 6.27774 44.152C6.51609 45.0972 6.79431 46.0272 7.1148 46.9368C7.30356 47.4724 7.62258 48.0087 8.16793 47.9999C8.70481 47.9912 8.98596 47.3593 9.20883 46.863C9.56113 46.0785 9.80011 45.2281 9.99483 44.3708C10.8982 40.3924 11.4207 36.2491 11.707 32.1443C11.8519 30.0667 11.8704 27.991 11.9442 25.9101C11.9807 24.8814 12.0623 23.8485 12.312 22.8591C12.5507 21.9138 12.9625 21.0641 13.4042 20.2373C14.2103 18.7282 14.9511 17.2601 15.3681 15.5229C15.7867 13.779 15.9437 11.957 16.0142 10.1496C16.0507 9.21396 16.0625 8.27717 16.0727 7.34061C16.0765 6.99608 15.6305 6.99595 15.6267 7.34061Z" fill="#24519B"/>
<path d="M3.68264 21.7498C6.60651 22.7449 9.70795 22.7157 12.618 21.6635C12.8922 21.5645 12.7753 21.0477 12.4995 21.1475C9.6618 22.1735 6.65264 22.2041 3.80117 21.2338C3.52452 21.1396 3.40651 21.6558 3.68264 21.7498Z" fill="#24519B"/>
</svg>
